#!OML:ASF I:\Actors\actors\Patient Classification 2\Patient 1\Session 1\actor1.ASF
:FULLY-SPECIFIED
:DEGREES
656
root -1.08638 18.1401 5.60393 -1.89722 -2.38423 -3.80637
lowerback 4.66994 -0.290802 5.25174
upperback 0.355874 -0.0288888 3.61335
thorax -2.25609 -0.050351 0.782105
lowerneck -8.24507 -4.67401 -0.751987
upperneck 21.5531 -7.08186 3.08938
head 8.16695 -3.13156 0.477933
rclavicle 4.38569e-015 -3.49861e-014
rhumerus -24.9495 35.4394 -91.6406
rradius 90.7524
rwrist 30.8509
rhand -23.4105 -36.2195
rfingers 7.12502
rthumb 3.04668 -66.1775
lclavicle 4.38569e-015 -3.49861e-014
lhumerus -24.8331 -22.4798 97.7638
lradius 87.6405
lwrist -12.0465
lhand -4.01787 -22.9899
lfingers 7.12502
lthumb 21.7368 5.80961
rfemur 0 0 0
rtibia 0
rfoot 0 0
rtoes 0
lfemur 19.0145 -4.81554 -12.7133
ltibia -17.5897
lfoot -2.7661 18.545
ltoes -11.6843
657
root -1.09014 18.138 5.60361 -1.9426 -2.50401 -3.7738
lowerback 4.73153 -0.31544 5.46929
upperback 0.363213 -0.0437176 3.69816
thorax -2.28376 -0.0599569 0.750064
lowerneck -8.41311 -4.74021 -0.608235
upperneck 21.5752 -7.19028 3.03798
head 8.20023 -3.17347 0.421994
rclavicle 1.09829e-014 4.45278e-014
rhumerus -24.754 35.7904 -91.7081
rradius 90.6345
rwrist 30.8452
rhand -23.2179 -36.0111
rfingers 7.12502
rthumb 3.23266 -65.9664
lclavicle 1.09829e-014 4.45278e-014
lhumerus -24.9465 -22.3659 97.6136
lradius 87.6874
lwrist -11.8315
lhand -4.11361 -23.2375
lfingers 7.12502
lthumb 21.6449 5.5727
rfemur 0 0 0
rtibia 0
rfoot 0 0
rtoes 0
lfemur 19.0757 -4.74173 -12.7411
ltibia -17.5473
lfoot -2.81057 18.5527
ltoes -11.6252
658
root -1.09269 18.1375 5.60359 -1.93965 -2.53266 -3.74718
lowerback 4.72884 -0.360842 5.68019
upperback 0.35514 -0.0904793 3.79498
thorax -2.29227 -0.08517 0.736136
lowerneck -8.42843 -4.76092 -0.510391
upperneck 21.4534 -7.21968 2.99115
head 8.15721 -3.18638 0.388577
rclavicle 8.27441e-015 -2.3059e-014
rhumerus -24.6102 36.1333 -91.7336
rradius 90.5522
rwrist 30.7773
rhand -23.1481 -35.8928
rfingers 7.12502
rthumb 3.30003 -65.847
lclavicle 8.27441e-015 -2.3059e-014
lhumerus -25.0096 -22.2266 97.5347
lradius 87.7208
lwrist -11.702
lhand -4.22544 -23.4175
lfingers 7.12502
lthumb 21.5375 5.40502
rfemur 0 0 0
rtibia 0
rfoot 0 0
rtoes 0
lfemur 19.0557 -4.72612 -12.7602
ltibia -17.4977
lfoot -2.85718 18.5564
ltoes -11.4666
659
root -1.09638 18.1361 5.6045 -1.94457 -2.59597 -3.71247
lowerback 4.7004 -0.39599 5.79783
upperback 0.358437 -0.13128 3.90725
thorax -2.27425 -0.105822 0.789426
lowerneck -8.42802 -4.77014 -0.434272
upperneck 21.3557 -7.24274 2.99914
head 8.1224 -3.19256 0.377577
rclavicle -4.39811e-015 6.04305e-014
rhumerus -24.5819 36.4677 -91.8221
rradius 90.513
rwrist 30.7236
rhand -23.1341 -35.9771
rfingers 7.12502
rthumb 3.31364 -65.9311
lclavicle -4.39811e-015 6.04305e-014
lhumerus -25.102 -22.0769 97.477
lradius 87.8099
lwrist -11.6376
lhand -4.37021 -23.4003
lfingers 7.12502
lthumb 21.3984 5.43804
rfemur 0 0 0
rtibia 0
rfoot 0 0
rtoes 0
lfemur 19.052 -4.67204 -12.7797
ltibia -17.4438
lfoot -2.94083 18.5498
ltoes -11.4149
660
root -1.09961 18.1347 5.60621 -1.96095 -2.63127 -3.66719
lowerback 4.66548 -0.455786 5.89872
upperback 0.355758 -0.207026 3.97654
thorax -2.25983 -0.144001 0.809887
lowerneck -8.51405 -4.74721 -0.286885
upperneck 21.4076 -7.24282 3.00938
head 8.15065 -3.17776 0.353803
rclavicle -2.90723e-015 -2.8625e-014
rhumerus -24.596 36.735 -92.0513
rradius 90.4389
rwrist 30.7536
rhand -23.0571 -36.1837
rfingers 7.12502
rthumb 3.388 -66.1365
lclavicle -2.90723e-015 -2.8625e-014
lhumerus -25.2447 -21.91 97.3413
lradius 87.8682
lwrist -11.613
lhand -4.50964 -23.4375
lfingers 7.12502
lthumb 21.2645 5.41602
rfemur 0 0 0
rtibia 0
rfoot 0 0
rtoes 0
lfemur 19.0603 -4.63788 -12.8152
ltibia -17.3968
lfoot -2.97588 18.514
ltoes -11.4896
661
root -1.10226 18.134 5.60696 -1.97549 -2.60799 -3.59718
lowerback 4.65901 -0.511204 5.99012
upperback 0.321377 -0.273286 4.01614
thorax -2.2941 -0.178778 0.804816
lowerneck -8.532 -4.71789 -0.150364
upperneck 21.4302 -7.21631 2.95876
head 8.15398 -3.15868 0.316658
rclavicle 7.50412e-015 -1.11319e-014
rhumerus -24.6731 36.8715 -92.2568
rradius 90.3893
rwrist 30.7964
rhand -23.0117 -36.2471
rfingers 7.12502
rthumb 3.43182 -66.1993
lclavicle 7.50412e-015 -1.11319e-014
lhumerus -25.4052 -21.7531 97.2473
lradius 87.8826
lwrist -11.7723
lhand -4.60496 -23.5858
lfingers 7.12502
lthumb 21.1729 5.27795
rfemur 0 0 0
rtibia 0
rfoot 0 0
rtoes 0
lfemur 19.0536 -4.5926 -12.8738
ltibia -17.3695
lfoot -2.94658 18.433
ltoes -11.5731
662
root -1.10405 18.1334 5.60789 -1.97551 -2.50791 -3.55931
lowerback 4.63275 -0.565639 6.11793
upperback 0.280866 -0.337315 4.06907
thorax -2.32385 -0.212738 0.793124
lowerneck -8.55712 -4.71284 -0.0932159
upperneck 21.4546 -7.20374 2.88
head 8.16117 -3.1549 0.281695
rclavicle -9.19379e-016 -2.8625e-014
rhumerus -24.8021 36.9591 -92.3494
rradius 90.3781
rwrist 30.7498
rhand -23.1008 -36.1668
rfingers 7.12502
rthumb 3.34574 -66.1203
lclavicle -9.19379e-016 -2.8625e-014
lhumerus -25.5063 -21.5931 97.2261
lradius 87.9211
lwrist -12.0479
lhand -4.52933 -23.6935
lfingers 7.12502
lthumb 21.2456 5.16215
rfemur 0 0 0
rtibia 0
rfoot 0 0
rtoes 0
lfemur 19.008 -4.41723 -12.8637
ltibia -17.3543
lfoot -2.84146 18.1679
ltoes -11.7628
663
root -1.10379 18.1336 5.61036 -1.96045 -2.28215 -3.57328
lowerback 4.53805 -0.669442 6.31446
upperback 0.265717 -0.471788 4.12163
thorax -2.29192 -0.280859 0.746555
lowerneck -8.63355 -4.68084 -0.208387
upperneck 21.466 -7.18098 3.05869
head 8.19012 -3.13444 0.359242
rclavicle -8.4732e-015 2.54444e-014
rhumerus -24.9041 37.1136 -92.3994
rradius 90.3867
rwrist 30.6649
rhand -23.1322 -36.1667
rfingers 7.12502
rthumb 3.31546 -66.1207
lclavicle -8.4732e-015 2.54444e-014
lhumerus -25.5035 -21.4322 97.1975
lradius 87.9333
lwrist -12.156
lhand -4.44102 -23.7677
lfingers 7.12502
lthumb 21.3304 5.07833
rfemur 0 0 0
rtibia 0
rfoot 0 0
rtoes 0
lfemur 18.9304 -4.36193 -12.8044
ltibia -17.3469
lfoot -2.72349 17.8931
ltoes -11.8566
664
root -1.10757 18.1319 5.61022 -2.02513 -2.30609 -3.57822
lowerback 4.58173 -0.689126 6.3927
upperback 0.282854 -0.489664 4.17687
thorax -2.29958 -0.290233 0.76197
lowerneck -8.66863 -4.61893 -0.390166
upperneck 21.4053 -7.13441 3.39122
head 8.19541 -3.09524 0.502667
rclavicle -8.15017e-015 3.65764e-014
rhumerus -25.0227 37.2342 -92.4347
rradius 90.4465
rwrist 30.6064
rhand -23.0004 -36.1025
rfingers 7.12502
rthumb 3.44268 -66.0544
lclavicle -8.15017e-015 3.65764e-014
lhumerus -25.4894 -21.3433 97.1771
lradius 87.9144
lwrist -12.118
lhand -4.48201 -23.7902
lfingers 7.12502
lthumb 21.291 5.06032
rfemur 0 0 0
rtibia 0
rfoot 0 0
rtoes 0
lfemur 19.0164 -4.42958 -12.8033
ltibia -17.3519
lfoot -2.75282 17.983
ltoes -11.7551
665
root -1.11129 18.1307 5.60993 -2.08183 -2.3133 -3.5819
lowerback 4.63795 -0.695478 6.45904
upperback 0.274162 -0.487631 4.21186
thorax -2.34048 -0.290701 0.762193
lowerneck -8.72763 -4.59233 -0.36874
upperneck 21.4834 -7.10838 3.40041
head 8.23152 -3.07761 0.502444
rclavicle -1.0312e-015 -2.22639e-014
rhumerus -25.1608 37.2508 -92.49
rradius 90.4644
rwrist 30.43
rhand -22.7977 -36.0677
rfingers 7.12502
rthumb 3.6385 -66.0164
lclavicle -1.0312e-015 -2.22639e-014
lhumerus -25.5619 -21.3271 97.1747
lradius 87.9361
lwrist -12.0766
lhand -4.51208 -23.7835
lfingers 7.12502
lthumb 21.2621 5.07027
rfemur 0 0 0
rtibia 0
rfoot 0 0
rtoes 0
lfemur 19.088 -4.52299 -12.8083
ltibia -17.3659
lfoot -2.77468 18.0913
ltoes -11.8587
666
root -1.11481 18.1296 5.60947 -2.13016 -2.30836 -3.5925
lowerback 4.70592 -0.694316 6.54189
upperback 0.247999 -0.472601 4.22539
thorax -2.40598 -0.285752 0.730531
lowerneck -8.84085 -4.59806 -0.209834
upperneck 21.7334 -7.10477 3.1543
head 8.32071 -3.07995 0.390085
rclavicle 7.20594e-015 -4.77083e-015
rhumerus -25.3214 37.2387 -92.5722
rradius 90.4642
rwrist 30.1594
rhand -22.5711 -36.4156
rfingers 7.12502
rthumb 3.85731 -66.3604
lclavicle 7.20594e-015 -4.77083e-015
lhumerus -25.6871 -21.3279 97.1958
lradius 87.9861
lwrist -12.0529
lhand -4.54677 -23.7875
lfingers 7.12502
lthumb 21.2288 5.06999
rfemur 0 0 0
rtibia 0
rfoot 0 0
rtoes 0
lfemur 19.1377 -4.52345 -12.7858
ltibia -17.3744
lfoot -2.78073 18.072
ltoes -11.8894
667
root -1.11865 18.1277 5.60957 -2.19051 -2.31273 -3.61694
lowerback 4.75627 -0.69235 6.58833
upperback 0.243284 -0.461547 4.24618
thorax -2.43905 -0.281422 0.726333
lowerneck -8.88487 -4.58899 -0.0913923
upperneck 21.8781 -7.08362 2.98545
head 8.36613 -3.07319 0.314305
rclavicle -3.47252e-015 2.70347e-014
rhumerus -25.4847 37.2645 -92.6142
rradius 90.5264
rwrist 29.8603
rhand -22.4002 -36.7817
rfingers 7.12502
rthumb 4.02234 -66.7235
lclavicle -3.47252e-015 2.70347e-014
lhumerus -25.7523 -21.3166 97.2128
lradius 88.0553
lwrist -11.8894
lhand -4.51403 -23.7394
lfingers 7.12502
lthumb 21.2603 5.11456
rfemur 0 0 0
rtibia 0
rfoot 0 0
rtoes 0
lfemur 19.2085 -4.53779 -12.7463
ltibia -17.3777
lfoot -2.81586 18.0823
ltoes -11.6703
668
root -1.12257 18.1258 5.61134 -2.23011 -2.29764 -3.62143
lowerback 4.73477 -0.699783 6.57203
upperback 0.250577 -0.474676 4.26077
thorax -2.41961 -0.287182 0.751022
lowerneck -8.88776 -4.53985 0.0421071
upperneck 21.9396 -7.01839 2.88086
head 8.37728 -3.04055 0.263612
rclavicle 1.06226e-015 -1.59028e-014
rhumerus -25.5906 37.317 -92.6064
rradius 90.5838
rwrist 29.4357
rhand -22.2508 -36.8559
rfingers 7.12502
rthumb 4.1666 -66.7949
lclavicle 1.06226e-015 -1.59028e-014
lhumerus -25.7359 -21.3112 97.1827
lradius 88.1161
lwrist -11.6036
lhand -4.37036 -23.6605
lfingers 7.12502
lthumb 21.3983 5.17782
rfemur 0 0 0
rtibia 0
rfoot 0 0
rtoes 0
lfemur 19.2633 -4.62629 -12.7406
ltibia -17.3784
lfoot -2.87958 18.1561
ltoes -11.4809
669
root -1.1256 18.1248 5.61314 -2.23983 -2.2495 -3.58649
lowerback 4.67549 -0.71063 6.53214
upperback 0.239062 -0.496679 4.24526
thorax -2.39876 -0.297467 0.757887
lowerneck -8.95585 -4.46351 0.183069
upperneck 22.1344 -6.92375 2.77191
head 8.44496 -2.98994 0.209929
rclavicle -5.03795e-015 1.59028e-014
rhumerus -25.7147 37.3323 -92.6023
rradius 90.6232
rwrist 28.9292
rhand -22.0931 -36.8889
rfingers 7.12502
rthumb 4.31885 -66.8248
lclavicle -5.03795e-015 1.59028e-014
lhumerus -25.7303 -21.324 97.1521
lradius 88.1258
lwrist -11.5109
lhand -4.35402 -23.637
lfingers 7.12502
lthumb 21.414 5.19963
rfemur 0 0 0
rtibia 0
rfoot 0 0
rtoes 0
lfemur 19.2776 -4.71941 -12.7822
ltibia -17.384
lfoot -2.91783 18.196
ltoes -11.3405
670
root -1.12827 18.1242 5.61468 -2.2561 -2.20246 -3.57632
lowerback 4.62334 -0.712667 6.51288
upperback 0.222777 -0.504612 4.23548
thorax -2.38651 -0.301195 0.758433
lowerneck -9.02654 -4.38061 0.260314
upperneck 22.3956 -6.81732 2.68634
head 8.53904 -2.93513 0.174849
rclavicle 1.64619e-014 -3.97569e-014
rhumerus -25.8591 37.2917 -92.6083
rradius 90.6294
rwrist 28.4351
rhand -21.878 -36.8947
rfingers 7.12502
rthumb 4.52654 -66.8263
lclavicle 1.64619e-014 -3.97569e-014
lhumerus -25.7627 -21.3234 97.168
lradius 88.1152
lwrist -11.5981
lhand -4.42964 -23.6791
lfingers 7.12502
lthumb 21.3413 5.16573
rfemur 0 0 0
rtibia 0
rfoot 0 0
rtoes 0
lfemur 19.2942 -4.73704 -12.7848
ltibia -17.3877
lfoot -2.90617 18.1636
ltoes -11.2912
